<?xml version="1.0" encoding="iso-8859-1"?>
<svg xmlns="http://www.w3.org/2000/svg" xmlns:xlink="http://www.w3.org/1999/xlink"
	version="1.1" viewBox="0 0 399 385">
	<g>
		<g>
			<path fill="#F4A026" d="m187.736,330.371l4.735,0.542c5.261,0.603 10.573,0.908 15.79,0.908c11.909,0 23.785,-1.573 35.299,-4.675l7.543,13.57c-15.979,14.932 -42.801,33.29 -79.829,35.953l-16.759,1.205l33.221,-47.503z"/>
			<path fill="#F4A026" d="m112.985,363.072c-16.29,-11.469 -55.743,-41.099 -70.252,-68.463l-2.664,-5.025l41.437,-44.614l5.097,10.538c6.508,13.454 15.207,25.713 25.855,36.437c10.091,10.165 21.584,18.598 34.161,25.062l8.608,4.425l-36.023,46.02l-6.219,-4.38z"/>
			<path fill="#61ACD2" d="m306.199,295.173l-12.088,7.144c-3.863,2.284 -7.661,4.657 -11.287,7.057c-22.109,14.683 -47.897,22.447 -74.563,22.447c-36.24,0 -70.264,-14.16 -95.806,-39.873c-25.53,-25.71 -39.449,-59.836 -39.194,-96.094c0.415,-59.303 40.544,-112.242 97.587,-128.739c12.888,-3.567 25.728,-5.364 38.253,-5.364c33.975,0 59.919,12.972 75.701,23.854c18.026,12.436 32.923,29.236 43.082,48.588c15.001,28.608 32.36,54.612 51.598,77.294c0.953,1.124 3.683,4.275 4.226,4.895l0.101,0.112c4.806,5.383 7.452,12.314 7.452,19.518l0,0.3c0,11.235 -6.57,21.616 -16.737,26.446c-24.187,11.512 -60.812,28.959 -62.555,29.834l-2.609,1.309l-3.161,1.272z"/>
			<path fill="#F4A026" d="m257.415,70.979c-15.464,-6.124 -31.72,-9.229 -48.314,-9.229c-4.998,0 -10.199,0.306 -15.46,0.908l-4.545,0.521l-37.56,-49.828l12.278,-2.615c7.711,-1.643 15.452,-2.476 23.006,-2.476c37.38,0 69.19,20.605 81.039,52.494l6.256,16.837l-16.7,-6.612z"/>
			<path fill="#F4A026" d="m40.069,102.628l2.663,-5.024c14.481,-27.323 53.952,-56.987 70.25,-68.473l6.22,-4.384l36.964,47.241l-8.654,4.409c-18.026,9.185 -34.02,22.436 -46.253,38.323c-5.47,7.111 -10.232,14.728 -14.151,22.633l-5.146,10.378l-41.893,-45.103z"/>
			<path fill="#F4A026" d="m15.589,234.175c-12.8,-30.631 -6.448,-65.82 -1.522,-84.07l2.836,-10.507l57.805,36.779l-0.569,4.972c-0.545,4.767 -0.841,9.646 -0.878,14.504c-0.028,4.47 0.16,9.004 0.559,13.466l0.489,5.471l-55.441,27.229l-3.279,-7.844z"/>
			<g>
				<circle r="8" cy="203.822" cx="317.256"/>
				<path d="m389.801,211.2c0,0 -3.73,-4.31 -5,-5.82c-18.54,-22.01 -35.29,-47.18 -49.84,-74.9c-10.75,-20.5 -26.53,-38.3 -45.62,-51.46c-2.98,-2.06 -6.3,-4.18 -9.95,-6.28c-3.66,-19.94 -14.08,-37.83 -29.73,-50.8c-16.89,-13.98 -39.2,-21.68 -62.84,-21.68c-12.28,0 -24.84,2.02 -37.31,6.01c-2.47,0.79 -4.4,2.73 -5.18,5.2c-0.79,2.47 -0.33,5.17 1.23,7.24l29.47,39.09c-2.1,0.5 -4.21,1.02 -6.32,1.6c-3.28,0.95 -6.51,2.04 -9.71,3.23l-33.44,-42.74c-2.57,-3.27 -7.21,-4.04 -10.69,-1.76c-2.7,1.77 -66.24,43.79 -82,81.62c-1.2,2.89 -0.61,6.22 1.52,8.52l38.74,41.72c-1.53,4.39 -2.84,8.87 -3.93,13.4l-47.65,-30.32c-2.03,-1.29 -4.53,-1.6 -6.82,-0.84c-2.28,0.76 -4.1,2.51 -4.95,4.76c-0.96,2.5 -23.02,61.97 2.45,108.66c1.45,2.66 4.19,4.17 7.03,4.17c1.19,0 2.39,-0.26 3.52,-0.82l45.57,-22.37c1.15,5.44 2.61,10.79 4.38,16.03l-38.34,41.28c-2.13,2.3 -2.72,5.63 -1.52,8.52c15.76,37.83 79.3,79.84 82,81.61c1.34,0.89 2.87,1.31 4.38,1.31c2.38,0 4.74,-1.06 6.31,-3.06l32.49,-41.53c5.27,1.98 10.66,3.64 16.15,4.97l-25.5,36.48c-1.67,2.38 -1.91,5.48 -0.63,8.1c1.28,2.61 3.87,4.32 6.78,4.47c2.38,0.12 4.76,0.19 7.13,0.19c31.27,0 60.89,-10.63 86.05,-30.95c16.86,-13.62 26.8,-27.56 29.98,-32.37c3.14,-1.76 6.23,-3.64 9.25,-5.65c10.56,-7 22.16,-13.49 35.49,-19.82l55.2,-26.23c12.94,-6.13 21.31,-19.35 21.31,-33.67l0,-0.3c0,-9.17 -3.36,-17.98 -9.46,-24.81zm-323.95,-1.17l-42.88,21.06c-12.04,-28.81 -5.55,-62.71 -1.18,-78.9l44.4,28.25c-0.58,5.07 -0.89,10.19 -0.93,15.35c-0.03,4.79 0.17,9.54 0.59,14.24zm99.63,-191.47c7.18,-1.53 14.32,-2.3 21.34,-2.3c34.78,0 62.95,18.78 73.54,47.28c-14.27,-5.65 -31.47,-9.79 -51.26,-9.79c-5.41,0 -10.87,0.33 -16.37,0.96l-27.25,-36.15zm-115.68,82.79c13.78,-26 52.72,-55.06 67.79,-65.68l26.29,33.6c-18.98,9.67 -35.87,23.57 -48.96,40.57c-5.83,7.58 -10.83,15.59 -14.98,23.96l-30.14,-32.45zm67.79,255.18c-15.07,-10.61 -54.01,-39.68 -67.79,-65.67l29.6,-31.87c6.82,14.1 16.01,27.14 27.38,38.59c10.77,10.85 22.97,19.75 36.18,26.54l-25.37,32.41zm53.11,12.16l20.86,-29.83c5.5,0.63 11.07,0.96 16.7,0.96c12.74,0 25.28,-1.69 37.38,-4.95c-15.71,14.68 -40.74,31.36 -74.94,33.82zm212.56,-132.38c0,8.17 -4.78,15.71 -12.17,19.22c0,0 -60.26,28.68 -62.71,29.91c-15.94,-3.81 -26.85,-15.21 -32.42,-33.95c-4.66,-15.71 -3.74,-30.81 -3.72,-31.11c0.3,-4.41 -3.02,-8.23 -7.42,-8.54c-4.42,-0.32 -8.23,3.01 -8.54,7.42c-0.06,0.72 -1.18,17.83 4.21,36.33c5.44,18.66 15.52,32.14 29.55,39.84c-4.01,2.37 -7.88,4.79 -11.63,7.27c-20.81,13.82 -45.07,21.12 -70.15,21.12c-34.1,0 -66.1,-13.32 -90.13,-37.51c-24.02,-24.19 -37.11,-56.3 -36.87,-90.4c0.39,-55.79 38.18,-105.6 91.81,-121.11c12.1,-3.35 24.22,-5.05 36.03,-5.05c31.91,0 56.31,12.2 71.16,22.44c16.96,11.7 30.98,27.51 40.54,45.72c15.29,29.16 32.97,55.63 52.58,78.75c1.06,1.25 4.43,5.14 4.46,5.16c3.49,3.91 5.42,8.94 5.42,14.19l0,0.3z"/>
				<path d="m208.26,291.822c-25.512,0 -49.452,-9.967 -67.412,-28.065c-14.481,-14.591 -23.676,-32.946 -26.591,-53.081c-0.633,-4.372 -4.7,-7.403 -9.063,-6.771c-4.373,0.633 -7.404,4.69 -6.771,9.063c3.41,23.556 14.154,45.015 31.069,62.059c20.987,21.148 48.96,32.795 78.769,32.795c4.418,0 8,-3.582 8,-8s-3.582,-8 -8.001,-8z"/>
			</g>
		</g>
	</g>
</svg>
