<?xml version="1.0" encoding="iso-8859-1"?>
<svg xmlns="http://www.w3.org/2000/svg" xmlns:xlink="http://www.w3.org/1999/xlink"
	version="1.1" viewBox="0 0 445 370">
	<g>
		<g>
			<path fill="#F4A026" d="m49.129,249.822l10.08,-5.459c5.822,-3.153 11.74,-5.812 17.591,-7.899c5.302,-1.884 8.498,-2.413 10.69,-2.664c0.839,-0.092 1.656,-0.135 2.473,-0.135c4.821,0 9.868,1.51 14.595,4.366c7.37,4.47 16.078,8.994 25.892,13.454l19.846,8.334c7.917,3.099 16.438,6.174 25.326,9.14l16.629,5.364l3.744,1.081c8.788,2.633 17.795,5.142 26.773,7.458l20.762,5.042c18.327,4.134 28.908,5.634 31.55,5.634c0.479,0 0.967,-0.018 1.462,-0.035l27.285,-0.948l-22.458,15.524c-28.582,19.758 -69.364,44.916 -101.328,52.56l-4.036,0.966l-126.876,-111.783z"/>
			<path fill="#3EBD9E" d="m345.556,257.602c-46.39,-55.599 -13.555,-105.486 -2.386,-119.451l4.477,-5.598l6.055,3.837c35.023,22.198 67.145,48.481 76.155,56.008l7.35,6.139l-7.35,6.141c-8.669,7.243 -39.615,32.582 -73.839,54.534l-5.94,3.81l-4.522,-5.42z"/>
			<path fill="#F4A026" d="m198.079,7.137l10.352,3.184c27.145,8.347 46.514,22.956 57.568,43.422c9.223,17.073 10.063,33.971 9.744,42.523l-0.259,6.944l-6.913,0.715c-14.238,1.471 -36.69,6.807 -60.057,14.272l-10.435,3.335l0,-114.395z"/>
			<path fill="#3EBD9E" d="m275.079,293.538c-6.415,0 -34.994,-5.508 -69.886,-15.468c-29.847,-8.525 -71.533,-22.391 -100.631,-40.031c-4.716,-2.859 -9.759,-4.371 -14.583,-4.371c-0.83,0 -1.65,0.044 -2.437,0.132c-3.261,0.36 -6.572,1.183 -10.741,2.666c-9.152,3.259 -32.612,13.219 -52.713,35.245l-19.192,21.03l5.43,-27.948c7.194,-37.035 28.918,-60.34 30.75,-62.24l0.011,-0.016c-1.719,-1.749 -23.555,-24.652 -30.794,-62.309l-5.36,-27.878l19.127,20.978c20.121,22.067 43.585,32.025 52.74,35.282c4.168,1.483 7.477,2.306 10.729,2.666c0.775,0.084 1.587,0.128 2.4,0.128c4.857,0 9.917,-1.511 14.633,-4.368c0.011,-0.007 0.016,-0.01 0.017,-0.01c0.001,0 -0.003,0.004 -0.01,0.009c48.468,-36.059 142.095,-63.497 170.51,-63.497c15.504,0 36.66,7.963 64.678,24.344l7.803,4.563l-5.477,7.19c-5.087,6.682 -12.08,17.554 -16.503,31.406c-6.455,20.222 -8.463,51.363 18.631,84.889l5.813,7.192l-7.953,4.717c-29.161,17.293 -51.075,25.699 -66.992,25.699z"/>
			<g>
				<circle r="8" cy="189.538" cx="364.764"/>
				<path d="m188.945,250.12c-2.964,0 -5.813,-1.654 -7.198,-4.499c-14.36,-29.481 -14.36,-64.685 0,-94.166c1.935,-3.974 6.722,-5.623 10.696,-3.689c3.972,1.935 5.624,6.724 3.689,10.695c-12.224,25.095 -12.224,55.06 0,80.154c1.935,3.972 0.283,8.761 -3.689,10.695c-1.129,0.549 -2.323,0.81 -3.498,0.81z"/>
				<path d="m243.549,264.093c-2.505,0 -4.972,-1.173 -6.531,-3.372c-26.39,-37.193 -26.39,-87.174 0,-124.367c2.556,-3.604 7.548,-4.454 11.153,-1.896c3.604,2.557 4.452,7.55 1.896,11.153c-22.461,31.656 -22.461,74.195 0,105.852c2.557,3.604 1.708,8.597 -1.896,11.153c-1.404,0.998 -3.021,1.477 -4.622,1.477z"/>
				<path d="m142.291,235.799c-3.422,0 -6.589,-2.213 -7.646,-5.654c-6.347,-20.678 -6.347,-42.537 0,-63.215c1.297,-4.223 5.772,-6.594 9.996,-5.3c4.224,1.296 6.597,5.771 5.3,9.995c-5.404,17.606 -5.404,36.218 0,53.824c1.296,4.224 -1.077,8.699 -5.3,9.995c-0.782,0.241 -1.572,0.355 -2.35,0.355z"/>
				<path d="m442.319,192.498c-0.27,-0.24 -28.09,-24.3 -61.98,-48.01c-41.04,-28.73 -73.48,-44.92 -96.64,-48.28c0.22,-8.22 -0.55,-21.37 -5.88,-35.6c-7.98,-21.33 -27.98,-49.21 -77.92,-60.86c-2.38,-0.55 -4.88,0.01 -6.79,1.52c-1.91,1.52 -3.03,3.83 -3.03,6.27l0,108.42c-32.36,11.46 -66.37,26.94 -89.96,44.42c-3.93,2.31 -8.03,3.35 -11.72,2.95c-1.75,-0.2 -4.35,-0.63 -8.91,-2.25c-12.66,-4.51 -44.27,-18.75 -64.49,-53.56c-1.79,-3.08 -5.4,-4.61 -8.86,-3.74c-3.46,0.86 -5.93,3.91 -6.05,7.47c-1.65,46.25 20.2,78.76 30.35,91.29c-10.15,12.53 -32,45.04 -30.35,91.29c0.12,3.56 2.59,6.61 6.05,7.47c0.65,0.16 1.3,0.24 1.94,0.24c2.8,0 5.46,-1.48 6.92,-3.98c9.78,-16.83 22.22,-28.85 33.89,-37.28l121.74,107.26c1.48,1.3 3.36,2 5.29,2c0.52,0 1.03,-0.05 1.55,-0.15c55.23,-10.85 136.38,-74.75 145.35,-81.92c16.73,-8.13 35.93,-19.77 57.52,-34.88c33.89,-23.71 61.71,-47.77 61.98,-48.01c1.75,-1.52 2.76,-3.72 2.76,-6.04s-1.01,-4.52 -2.76,-6.04zm-236.241,-98.59l15.47,-4.28c4.26,-1.18 6.76,-5.58 5.58,-9.84c-1.18,-4.26 -5.58,-6.76 -9.84,-5.58l-11.21,3.1l0,-15.4l15.47,-4.28c4.26,-1.18 6.76,-5.58 5.58,-9.84c-1.18,-4.26 -5.58,-6.76 -9.84,-5.58l-11.21,3.1l0,-27.34c58.18,17.89 62.28,61.65 61.67,78c-14.33,1.48 -36.85,6.68 -61.67,14.61l0,-16.67zm-27.9,258.95l-115.16,-101.46c6.72,-3.64 12.52,-5.99 16.47,-7.4c4.56,-1.62 7.16,-2.05 8.91,-2.25c3.77,-0.41 8,0.7 12.02,3.13c8.03,4.87 17.08,9.51 26.72,13.89l-10.67,4.76c-4.03,1.79 -5.85,6.52 -4.05,10.56c1.33,2.98 4.25,4.75 7.31,4.75c1.09,0 2.19,-0.23 3.25,-0.7l24.4,-10.87c8.43,3.3 17.08,6.4 25.71,9.28l-26.02,15.07c-3.82,2.21 -5.13,7.1 -2.91,10.93c1.48,2.56 4.17,3.99 6.93,3.99c1.36,0 2.74,-0.35 4,-1.08l38,-22c0.21,-0.12 0.41,-0.25 0.61,-0.39c9.38,2.81 18.5,5.33 27.07,7.54l-34.2,23.32c-3.65,2.49 -4.59,7.47 -2.1,11.12c1.55,2.27 4.06,3.49 6.62,3.49c1.55,0 3.12,-0.45 4.5,-1.39l46.18,-31.44c16.76,3.78 29.12,5.83 33.31,5.83c0.57,0 1.15,-0.02 1.74,-0.04c-28.439,19.66 -68.03,44.04 -98.64,51.36zm96.9,-67.32c-5.09,0 -32.83,-5.21 -67.69,-15.16c-29.37,-8.39 -70.34,-22 -98.68,-39.18c-5.97,-3.62 -12.44,-5.53 -18.73,-5.53c-1.11,0 -2.23,0.06 -3.32,0.18c-3.89,0.43 -7.76,1.38 -12.54,3.08c-11.09,3.95 -35.06,14.51 -55.94,37.39c6.98,-35.93 28.3,-57.87 28.56,-58.12c3.12,-3.13 3.12,-8.19 0,-11.32c-0.27,-0.26 -21.65,-22.06 -28.59,-58.16c20.88,22.9 44.87,33.48 55.97,37.43c4.78,1.7 8.65,2.65 12.53,3.08c7.26,0.79 15.03,-1.09 22.06,-5.35c0.22,-0.13 0.43,-0.27 0.63,-0.42c45.52,-33.89 137.84,-61.92 165.74,-61.92c15.45,0 37.55,9.75 60.64,23.25c-5.46,7.17 -12.99,18.88 -17.76,33.82c-7.15,22.4 -9.16,56.23 20.03,92.35c-23.909,14.18 -46.95,24.58 -62.91,24.58zm76.62,-33.06c-41.96,-50.29 -13.94,-94.75 -2.28,-109.33c28.92,18.33 57.64,40.63 75.31,55.39c-17.2,14.37 -44.889,35.89 -73.03,53.94z"/>
			</g>
		</g>
	</g>
</svg>
