<?xml version="1.0" encoding="iso-8859-1"?>
<svg xmlns="http://www.w3.org/2000/svg" xmlns:xlink="http://www.w3.org/1999/xlink"
	version="1.1" viewBox="0 0 451 305">
	<g>
		<g>
			<path fill="#61ACD2" d="m69.094,298.001l18.369,-14.311c18.333,-14.282 33.557,-28.342 45.25,-41.789l19.976,-23.152l46.759,37.405c4.136,3.31 8.733,6.154 13.666,8.457l10.146,4.734l-7.766,8.063c-6.044,6.276 -9.951,10.283 -12.299,12.611c-5.271,5.285 -14.794,7.98 -28.274,7.98l-105.827,0l0,0.002z"/>
			<path fill="#61ACD2" d="m130.759,107.953c-16.236,-20.935 -43.291,-49.421 -79.973,-66.24l-16.795,-7.701l17.107,-6.979c29.139,-11.887 65.638,-18.433 102.772,-18.433l103.43,0l0,82.07l-31.39,0c-22.791,0 -44.897,9.426 -60.666,25.863l-14.614,16.339l-19.871,-24.919z"/>
			<path fill="#F4A026" d="m20.779,273.99c23.085,-53.276 20.064,-105.125 13.466,-139.239c-5.231,-27.067 -13.511,-48.751 -19.534,-62.175l-7.253,-16.163l16.921,5.247c38.521,11.944 77.561,59.684 89.353,77.07c3.51,5.18 9.352,8.271 15.629,8.271l0.189,0c5.369,0 10.504,-2.298 14.088,-6.304l21.534,-24.096l0.102,-0.105c15.782,-16.412 37.883,-25.825 60.637,-25.825l63.089,0l0,-87.653l14.979,26.731c3.229,5.763 8.865,17.26 8.865,17.26c2.767,5.67 5.374,11.013 8.273,16.002c27.799,47.959 44.744,65.359 75.507,96.948l46.478,48.148l-7.082,5.452c-22.438,17.271 -80.482,57.44 -134.72,57.44l-59.54,0c-15.312,0 -30.34,-5.271 -42.314,-14.84l-56.273,-45.022c-3.104,-2.483 -6.078,-4.138 -10.492,-4.138l-3.869,0c-5.904,0 -11.533,2.749 -15.058,7.353c-20.745,27.064 -55.635,52.737 -81.251,69.511l-22.34,14.627l10.616,-24.5z"/>
			<g>
				<circle r="8" cy="186.001" cx="361"/>
				<circle r="8" cy="146.001" cx="267"/>
				<circle r="8" cy="182.001" cx="267"/>
				<circle r="8" cy="218.001" cx="267"/>
				<circle r="8" cy="146.001" cx="227"/>
				<circle r="8" cy="182.001" cx="227"/>
				<circle r="8" cy="218.001" cx="227"/>
				<path d="m314,221.001c-4.418,0 -8,-3.582 -8,-8l0,-54c0,-4.418 3.582,-8 8,-8s8,3.582 8,8l0,54c0,4.418 -3.582,8 -8,8z"/>
				<path d="m448.76,202.451c0,0 -41.86,-43.41 -46.35,-48.02c-30.34,-31.14 -47.05,-48.3 -74.37,-95.42c-2.72,-4.7 -5.29,-9.95 -8.01,-15.51c-6.21,-12.69 -13.24,-27.08 -24.96,-40.71c-2.18,-2.54 -5.71,-3.46 -8.85,-2.29c-3.14,1.16 -5.22,4.15 -5.22,7.5l0,74.67l-15.7,0l0,-74.07c0,-4.42 -3.58,-8 -8,-8l-103.43,0c-45.92,0 -90.6,9.8 -122.6,26.88c-0.06,0.04 -0.12,0.07 -0.18,0.1l-1.02,0.58c-2.75,1.57 -4.32,4.6 -4.01,7.75c0.31,3.15 2.45,5.82 5.46,6.81c42.79,14.11 74.16,45.95 92.95,70.17c0.02,0.03 0.04,0.06 0.07,0.09l15.62,19.6l-2.49,2.79c-2.06,2.31 -5.03,3.63 -8.12,3.63l-0.19,0c-3.62,0 -6.98,-1.78 -9,-4.76c-15.7,-23.15 -66.49,-83.24 -112.36,-83.24c-2.85,0 -5.49,1.52 -6.92,3.99c-1.43,2.46 -1.44,5.51 -0.02,7.99c0.17,0.29 17.11,30.27 25.44,73.83c11.07,57.86 2.53,111.06 -25.38,158.11c-1.85,3.11 -1.37,7.08 1.16,9.67c1.54,1.58 3.62,2.41 5.72,2.41c1.34,0 2.69,-0.34 3.92,-1.03c2.99,-1.68 73.67,-41.73 108.18,-86.75c2.02,-2.64 5.28,-4.22 8.71,-4.22l3.87,0c1.77,0 2.93,0.33 5.5,2.39l3.02,2.42l-14.54,16.87c-13.06,15 -30.64,30.78 -52.26,46.91c-3.48,2.59 -7.13,5.24 -10.86,7.88c-2.84,2.01 -4.06,5.63 -3,8.95c1.05,3.32 4.14,5.58 7.62,5.58l106.76,0c15.67,0 27.1,-3.48 33.95,-10.34c3.97,-3.95 11.31,-11.56 17.7,-18.22c4.98,1.02 10.07,1.56 15.19,1.56l59.54,0c69.84,0 143.77,-62.26 146.89,-64.91c1.68,-1.43 2.69,-3.49 2.8,-5.69c0.11,-2.21 -0.7,-4.36 -2.23,-5.95zm-311.68,-99.4c-17.52,-22.59 -45.36,-51.37 -82.96,-68.61c28.02,-11.43 63.38,-17.84 99.75,-17.84l95.43,0l0,66.07l-23.39,0c-24.99,0 -49.24,10.35 -66.52,28.41c-0.06,0.06 -0.12,0.13 -0.18,0.2l-8.23,9.2l-13.9,-17.43zm60.48,181.29c-3.64,3.65 -11.68,5.66 -22.64,5.66l-82.54,0c18.74,-14.6 34.31,-28.98 46.37,-42.85l14.96,-17.34l40.74,32.59c4.71,3.77 9.86,6.93 15.28,9.46c-5.72,5.94 -9.75,10.08 -12.17,12.48zm103.74,-21.34l-59.54,0c-13.51,0 -26.76,-4.65 -37.32,-13.09l-56.27,-45.02c-3.64,-2.91 -8.33,-5.89 -15.49,-5.89l-3.87,0c-8.37,0 -16.38,3.92 -21.41,10.49c-20.42,26.64 -55.7,52.24 -79.28,67.68c23.55,-54.35 21.1,-107.13 13.98,-143.94c-5.41,-27.99 -14.01,-50.38 -20.09,-63.93c33.09,10.26 70.37,52.2 85.1,73.92c5,7.38 13.32,11.78 22.25,11.78l0.19,0c7.64,0 14.95,-3.27 20.05,-8.97l21.44,-23.99c14.28,-14.85 34.26,-23.37 54.87,-23.37l63.09,0c4.42,0 8,-3.59 8,-8l0,-57.01c3.16,5.64 5.93,11.3 8.66,16.87c2.84,5.82 5.53,11.32 8.54,16.5c28.31,48.84 45.52,66.5 76.75,98.57c4.47,4.59 40.19,41.62 40.19,41.62c-19.32,14.87 -77.27,55.78 -129.84,55.78z"/>
			</g>
		</g>
	</g>
</svg>
