<?xml version="1.0" encoding="iso-8859-1"?>
<svg xmlns="http://www.w3.org/2000/svg" xmlns:xlink="http://www.w3.org/1999/xlink"
	version="1.1" viewBox="0 0 512 403">
	<g>
		<path fill="#C9171D" d="m476.925,135.73l-116.228,50.748c2.691,11.9 4.112,24.284 4.112,37c0,12.716 -1.422,25.099 -4.112,37l116.228,50.748c15.76,-25.51 24.876,-55.559 24.876,-87.748s-9.116,-62.238 -24.876,-87.748z"/>
		<path fill="#FF931E" d="m176.827,121.924c0,0 34.153,-73.481 117.984,-97.285s116.95,-10.349 116.95,-10.349s-147.998,33.119 -167.662,99.356s-67.272,8.278 -67.272,8.278z"/>
		<path fill="#FCCB41" d="m211.974,87.832c-60.212,6.826 -109.419,47.676 -128.719,102.478c-11.698,33.216 -31.789,62.84 -58.736,85.511l-14.319,12.046l1.952,0.713c30.743,11.235 58.615,28.839 82.947,50.733c12.343,11.107 28.686,17.896 46.684,17.896l154.522,0c47.31,0 88.08,-33.309 97.516,-79.669l30.513,-149.936c6.566,-32.266 -20.253,-61.552 -52.971,-57.843l-159.389,18.071z"/>
		<path fill="#FF931E" d="m332.069,381.307l0,0c-16.167,16.167 -42.379,16.167 -58.545,0l-49.032,-49.032l29.273,-29.273l78.304,78.305z"/>
		<path d="m485.601,130.369c-2.667,-4.319 -8.104,-6.019 -12.758,-3.986l-41.544,18.139l3.029,-14.885c3.788,-18.615 -1.397,-37.326 -14.227,-51.335c-12.829,-14.008 -31.011,-20.816 -49.887,-18.677l-69.128,7.837c47.59,-28.324 112.111,-43.045 112.902,-43.223c4.353,-0.974 7.568,-4.664 7.937,-9.11c0.369,-4.444 -2.193,-8.614 -6.326,-10.293c-1.484,-0.604 -37.361,-14.493 -123.574,9.987c-48.24,13.698 -80.766,43.022 -100.026,66.132c-24.128,5.601 -46.708,16.538 -66.124,32.18c-23.977,19.315 -42.042,44.83 -52.239,73.784c-11.214,31.841 -30.469,59.883 -55.683,81.095l-14.32,12.048c-2.784,2.344 -4.11,5.993 -3.478,9.577c0.631,3.584 3.125,6.56 6.544,7.807l1.951,0.713c28.454,10.399 55.244,26.795 79.626,48.735c14.701,13.228 33.703,20.513 53.506,20.513l103.417,0l21.11,21.11c9.746,9.745 22.703,15.112 36.485,15.112c13.783,0 26.74,-5.368 36.485,-15.112c3.983,-3.983 3.983,-10.441 0,-14.425l-11.336,-11.336c35.063,-10.502 62.745,-37.929 73.396,-73.407l71.504,31.221c1.323,0.577 2.709,0.854 4.077,0.854c3.444,0 6.772,-1.749 8.682,-4.84c17.27,-27.951 26.398,-60.147 26.398,-93.106s-9.128,-65.156 -26.399,-93.109zm-188.004,-95.919c19.041,-5.408 35.341,-8.818 49.111,-10.886c-29.59,11.173 -63.349,27.282 -86.435,48.528l-35.707,4.048c17.475,-16.319 41.548,-32.751 73.031,-41.69zm5.199,348.784c-8.334,0 -16.169,-3.245 -22.061,-9.138l-41.82,-41.82l14.849,-14.849l62.681,62.68c-4.199,2.046 -8.84,3.127 -13.649,3.127zm8.185,-37.438l-50.005,-50.005c-3.984,-3.982 -10.44,-3.982 -14.425,0l-29.273,29.273c-3.983,3.983 -3.983,10.441 0,14.425l7.523,7.523l-37.104,0c11.141,-11.229 19.177,-25.446 22.9,-41.284c1.29,-5.483 -2.11,-10.973 -7.593,-12.263c-5.476,-1.292 -10.974,2.109 -12.262,7.593c-4.855,20.644 -19.273,37.7 -38.732,45.954l-10.227,0c-14.756,0 -28.913,-5.426 -39.863,-15.277c-22.268,-20.037 -46.462,-35.817 -72.099,-47.044l1.264,-1.064c28,-23.557 49.367,-54.653 61.79,-89.927c18.295,-51.949 65.496,-89.525 120.249,-95.731l159.387,-18.071c12.323,-1.399 24.178,3.045 32.547,12.184c8.369,9.139 11.753,21.347 9.282,33.49l-30.514,149.936c-7.428,36.499 -36.433,64.268 -72.845,70.288zm161.687,-47.558l-66.723,-29.133l20.382,-100.154l46.34,-20.233c12.411,22.88 18.934,48.546 18.934,74.76s-6.523,51.88 -18.933,74.76z"/>
		<path d="m206.842,254.119c-2.062,-5.242 -7.983,-7.818 -13.226,-5.756c-5.241,2.062 -7.819,7.984 -5.756,13.226c0.924,2.348 1.724,4.77 2.376,7.198c1.225,4.553 5.343,7.554 9.843,7.554c0.876,0 1.768,-0.114 2.655,-0.353c5.44,-1.464 8.663,-7.059 7.202,-12.498c-0.851,-3.163 -1.892,-6.315 -3.094,-9.371z"/>
		<path d="m124.562,206.256c-7.051,0 -12.787,5.736 -12.787,12.787s5.736,12.787 12.787,12.787c7.05,0 12.786,-5.736 12.786,-12.787s-5.736,-12.787 -12.786,-12.787z"/>
		<g/>
		<g/>
		<g/>
		<g/>
		<g/>
		<g/>
		<g/>
		<g/>
		<g/>
		<g/>
		<g/>
		<g/>
		<g/>
		<g/>
		<g/>
	</g>
</svg>
