<?xml version="1.0" standalone="no"?>
<!DOCTYPE svg PUBLIC "-//W3C//DTD SVG 20010904//EN"
 "http://www.w3.org/TR/2001/REC-SVG-20010904/DTD/svg10.dtd">
<svg version="1.0" xmlns="http://www.w3.org/2000/svg"
 width="100%" viewBox="0 0 1024 161"
 preserveAspectRatio="xMidYMid meet" fill="#003042">

<g transform="translate(0,161) scale(0.1,-0.1)" stroke="none">
<path d="M4395 1599 c-130 -14 -452 -97 -595 -152 -94 -37 -342 -147 -435
-194 -44 -23 -156 -71 -250 -108 -228 -91 -360 -115 -622 -115 -178 0 -188 1
-390 44 -228 49 -225 48 -404 72 -133 17 -361 14 -429 -6 -19 -5 -74 -17 -122
-25 -211 -37 -456 -134 -636 -251 -133 -87 -448 -331 -482 -374 -16 -21 -30
-45 -30 -53 0 -25 48 -55 108 -68 31 -6 62 -15 67 -20 6 -4 47 -21 90 -38 44
-16 107 -41 140 -55 89 -37 322 -94 433 -107 109 -12 185 -8 382 21 313 47
337 49 475 46 94 -2 172 -10 236 -24 53 -12 177 -35 275 -52 99 -17 229 -46
289 -64 61 -18 174 -44 252 -56 133 -22 152 -22 305 -12 206 14 236 23 437
126 53 27 164 84 248 126 83 42 158 81 165 87 7 6 40 20 73 31 33 12 110 39
170 62 175 66 189 69 348 83 257 23 512 -6 837 -97 253 -71 314 -91 751 -250
142 -51 228 -66 389 -66 138 0 310 26 334 51 6 5 17 9 25 9 26 0 130 53 223
113 47 32 91 57 97 57 7 0 35 18 64 39 59 44 265 161 285 161 7 0 34 11 60 25
26 13 99 38 162 55 63 17 135 37 160 45 25 8 85 19 134 25 49 6 99 16 110 23
14 8 101 13 271 15 226 3 268 1 437 -23 230 -32 361 -70 582 -170 200 -90 266
-111 419 -130 121 -15 361 -20 391 -9 23 9 22 80 -2 93 -10 5 -66 16 -125 25
-72 10 -157 32 -259 66 -220 75 -291 108 -410 188 -243 163 -655 376 -938 485
-181 69 -445 151 -570 177 -131 27 -361 43 -510 37 -211 -9 -397 -56 -770
-197 -211 -80 -300 -105 -428 -121 -91 -11 -112 -10 -185 5 -83 18 -230 73
-445 167 -184 80 -377 154 -497 189 -60 18 -124 39 -141 46 -17 7 -48 13 -70
12 -21 0 -57 5 -79 10 -22 6 -80 11 -130 11 -49 0 -106 5 -125 11 -38 11 -42
11 -145 -1z"/>
</g>
</svg>
