<?xml version="1.0" standalone="no"?>
<!DOCTYPE svg PUBLIC "-//W3C//DTD SVG 20010904//EN"
 "http://www.w3.org/TR/2001/REC-SVG-20010904/DTD/svg10.dtd">
<svg version="1.0" xmlns="http://www.w3.org/2000/svg"
 width="100%" viewBox="0 0 332 392"
 preserveAspectRatio="xMidYMid meet"  fill="#003042">

<g transform="translate(0,452) scale(0.1,-0.1)" stroke="none">
<path id="svg_2" d="m89.09091,4495.27295c-34,-18 -51,-36 -69,-72c-23,-45 -24,-53 -13,-105c17,-78 71,-186 201,-400c133,-218 222,-383 290,-542c128,-299 154,-498 111,-845c-24,-191 -24,-240 -4,-319c8,-33 17,-69 20,-80c4,-14 -13,-50 -49,-107c-141,-225 -151,-465 -26,-658c65,-100 112,-152 270,-291c171,-151 213,-204 206,-265c-2,-23 -16,-58 -31,-80c-31,-46 -33,-87 -6,-114c33,-33 74,-26 120,20c61,61 93,132 94,210c2,114 -44,199 -222,420c-209,258 -227,364 -90,524l34,38l49,-17c81,-27 175,-29 350,-6c348,46 552,19 854,-110c158,-68 319,-154 550,-294c311,-188 401,-223 488,-190c31,12 52,29 71,58c57,86 30,196 -143,577c-216,474 -283,727 -273,1031c6,156 20,209 80,299c40,61 70,86 250,214c124,88 148,200 65,301c-38,46 -81,65 -148,65c-74,0 -127,-34 -185,-118c-97,-138 -149,-175 -249,-176c-84,-1 -165,44 -270,149c-105,105 -150,186 -149,270c1,100 38,152 176,249c84,58 118,111 118,185c0,67 -19,110 -65,148c-50,42 -110,58 -161,44c-72,-20 -102,-48 -191,-182c-143,-213 -257,-266 -552,-257c-274,9 -495,73 -919,263c-397,179 -497,207 -582,163z" />
</g>
</svg>
