<?xml version="1.0" standalone="no"?>
<!DOCTYPE svg PUBLIC "-//W3C//DTD SVG 20010904//EN" "http://www.w3.org/TR/2001/REC-SVG-20010904/DTD/svg10.dtd">
<svg version="1.0" xmlns="http://www.w3.org/2000/svg"
	width="100%" viewBox="0 0 300 200" 
	preserveAspectRatio="xMidYMid meet" fill="#003042">
<path d="m252.472,79.66c-35.063,1.018 -81.701,5.444 -133.099,14.293c-51.4,8.846 -62.426,-5.467 -67.398,-21.439c-5.63,-18.084 0.212,-27.206 0.212,-27.206c33.263,-5.405 36.17,-26.597 35.337,-38.658c-3.323,4.165 -8.413,6.899 -12.634,7.058c-3.024,0.11 -12.306,-9.346 -27.274,5.832c0.834,-8.314 -3.143,-13.805 -13.254,-16.631c-10.375,-2.913 -18.33,11.097 -34.139,-2.909c-3.326,44.068 31.594,45.308 31.594,45.308c-14.225,78.259 45.009,118.089 46.028,122.857c1.021,4.759 -15.999,9.523 -12.938,14.298c3.065,4.76 23.83,3.746 36.088,1.354c59.566,15.655 72.466,18.708 143.647,17.031c57.279,-1.369 56.638,-51.767 54.944,-69.499c-3.327,-34.856 -12.051,-52.712 -47.114,-51.689z"/>
<g>
</g>
<g>
</g>
<g>
</g>
<g>
</g>
<g>
</g>
<g>
</g>
<g>
</g>
<g>
</g>
<g>
</g>
<g>
</g>
<g>
</g>
<g>
</g>
<g>
</g>
<g>
</g>
<g>
</g>
</svg>
